<svg width="100" height="100" viewBox="0 0 100 100" fill="none" xmlns="http://www.w3.org/2000/svg">
<mask id="mask0_15_260" style="mask-type:alpha" maskUnits="userSpaceOnUse" x="2" y="0" width="97" height="100">
<path d="M32.6104 100C26.213 100 20.7468 98.9042 16.212 96.7125C11.6771 94.6021 8.19496 91.5175 5.76557 87.4589C3.25519 83.4003 2 78.4894 2 72.7262C2 69.2359 2.52637 65.7861 3.57911 62.3768C4.63185 59.0488 6.33243 56.0048 8.68084 53.245C10.9483 50.5663 13.9445 48.4153 17.6696 46.7918C21.3947 45.1684 25.9296 44.3567 31.2742 44.3567L44.2715 44.3567L44.2715 5.89142e-06H55.668L55.668 100H32.6104ZM31.3957 55.6802C27.9136 55.6802 25.0388 56.2484 22.7713 57.3848C20.5039 58.5212 18.7223 59.9417 17.4267 61.6463C16.131 63.4321 15.1997 65.299 14.6329 67.2471C14.066 69.1953 13.7826 70.9405 13.7826 72.4827C13.7826 74.2685 14.066 76.0949 14.6329 77.9618C15.1997 79.91 16.1715 81.6552 17.5481 83.1974C18.8438 84.8209 20.5849 86.1196 22.7713 87.0937C24.8768 88.1489 27.5087 88.6765 30.6669 88.6765H44.2715L44.2715 55.6802H31.3957Z" fill="#52A0C7"/>
<path d="M67.5286 0C73.926 0 79.3922 1.09582 83.927 3.28746C88.4619 5.39793 91.944 8.48246 94.3734 12.5411C96.8838 16.5996 98.139 21.5105 98.139 27.2738C98.139 30.7641 97.6126 34.2139 96.5599 37.6232C95.5072 40.9512 93.8066 43.9952 91.4582 46.755C89.1907 49.4337 86.1945 51.5847 82.4694 53.2082C78.7443 54.8316 74.2095 55.6433 68.8648 55.6433H55.8675V100H44.0849V0H67.5286ZM68.7433 44.3198C72.2254 44.3198 75.1002 43.7516 77.3677 42.6152C79.6351 41.4788 81.4167 40.0583 82.7123 38.3537C84.008 36.5679 84.9393 34.701 85.5061 32.7528C86.073 30.8047 86.3564 29.0595 86.3564 27.5173C86.3564 25.7315 86.073 23.9051 85.5061 22.0382C84.9393 20.09 83.9675 18.3448 82.5909 16.8026C81.2952 15.1791 79.5541 13.8804 77.3677 12.9063C75.2622 11.8511 72.6303 11.3235 69.4721 11.3235H55.8675V44.3198H68.7433Z" fill="#52A0C7"/>
</mask>
<g mask="url(#mask0_15_260)">
<rect x="2" width="96.139" height="100" fill="url(#paint0_linear_15_260)"/>
</g>
<defs>
<linearGradient id="paint0_linear_15_260" x1="-11.4595" y1="88.8889" x2="24.1732" y2="-12.5296" gradientUnits="userSpaceOnUse">
<stop offset="0.0590163" stop-color="#9945FF"/>
<stop offset="1" stop-color="#14F195"/>
</linearGradient>
</defs>
</svg>
